<?xml version="1.0"?>
<svg width="640" height="600" xmlns="http://www.w3.org/2000/svg">
 <!-- Created with SVG-edit - http://svg-edit.googlecode.com/ -->
 <g>
  <title>Layer 1</title>
  <rect fill="#ffffff" stroke="#000000" stroke-width="2" stroke-dasharray="null" stroke-linejoin="null" stroke-linecap="null" x="13" y="138" width="610" height="437" id="svg_123"/>
  <rect fill="#aaffaa" stroke="#000000" stroke-width="2" x="38" y="161" width="31" height="32" id="svg_1"/>
  <rect fill="#aad4ff" stroke="#000000" stroke-width="2" x="69" y="161" width="31" height="32" id="svg_2"/>
  <rect fill="#ffffaa" stroke="#000000" stroke-width="2" x="100" y="161" width="31" height="32" id="svg_3"/>
  <rect fill="#aad4ff" stroke="#000000" stroke-width="2" x="131" y="161" width="31" height="32" id="svg_4"/>
  <rect fill="#aaffaa" stroke="#000000" stroke-width="2" x="162" y="161" width="31" height="32" id="svg_5"/>
  <rect fill="#ffaad4" stroke="#000000" stroke-width="2" x="91" y="434" width="31" height="32" id="svg_9"/>
  <rect fill="#aaffaa" stroke="#000000" stroke-width="2" x="122" y="434" width="31" height="32" id="svg_10"/>
  <rect fill="#ffffaa" stroke="#000000" stroke-width="2" x="153" y="434" width="31" height="32" id="svg_11"/>
  <rect fill="#ffffaa" stroke="#000000" stroke-width="2" x="184" y="434" width="31" height="32" id="svg_12"/>
  <rect fill="#aaffaa" stroke="#000000" stroke-width="2" x="215" y="434" width="31" height="32" id="svg_13"/>
  <rect fill="#ffaad4" stroke="#000000" stroke-width="2" x="246" y="434" width="31" height="32" id="svg_14"/>
  <rect fill="#aaffaa" stroke="#000000" stroke-width="2" x="241" y="161" width="31" height="32" id="svg_17"/>
  <rect fill="#aad4ff" stroke="#000000" stroke-width="2" x="272" y="161" width="31" height="32" id="svg_18"/>
  <rect fill="#ffffaa" stroke="#000000" stroke-width="2" x="303" y="161" width="31" height="32" id="svg_19"/>
  <rect fill="#aad4ff" stroke="#000000" stroke-width="2" x="334" y="161" width="31" height="32" id="svg_20"/>
  <rect fill="#aaffaa" stroke="#000000" stroke-width="2" x="365" y="161" width="31" height="32" id="svg_21"/>
  <rect fill="#aaffaa" stroke="#000000" stroke-width="2" x="438" y="161" width="31" height="32" id="svg_22"/>
  <rect fill="#aad4ff" stroke="#000000" stroke-width="2" x="469" y="161" width="31" height="32" id="svg_23"/>
  <rect fill="#ffffaa" stroke="#000000" stroke-width="2" x="500" y="161" width="31" height="32" id="svg_24"/>
  <rect fill="#aad4ff" stroke="#000000" stroke-width="2" x="531" y="161" width="31" height="32" id="svg_25"/>
  <rect fill="#aaffaa" stroke="#000000" stroke-width="2" x="562" y="161" width="31" height="32" id="svg_26"/>
  <rect fill="#aaffaa" stroke="#000000" stroke-width="2" x="40" y="244" width="31" height="32" id="svg_75"/>
  <rect fill="#aad4ff" stroke="#000000" stroke-width="2" x="71" y="244" width="31" height="32" id="svg_76"/>
  <rect fill="#ffffaa" stroke="#000000" stroke-width="2" x="102" y="244" width="31" height="32" id="svg_77"/>
  <rect fill="#aad4ff" stroke="#000000" stroke-width="2" x="133" y="244" width="31" height="32" id="svg_78"/>
  <rect fill="#aaffaa" stroke="#000000" stroke-width="2" x="164" y="244" width="31" height="32" id="svg_79"/>
  <rect fill="#aaffaa" stroke="#000000" stroke-width="2" x="243" y="244" width="31" height="32" id="svg_80"/>
  <rect fill="#aad4ff" stroke="#000000" stroke-width="2" x="274" y="244" width="31" height="32" id="svg_81"/>
  <rect fill="#ffffaa" stroke="#000000" stroke-width="2" x="305" y="244" width="31" height="32" id="svg_82"/>
  <rect fill="#aad4ff" stroke="#000000" stroke-width="2" x="336" y="244" width="31" height="32" id="svg_83"/>
  <rect fill="#aaffaa" stroke="#000000" stroke-width="2" x="367" y="244" width="31" height="32" id="svg_84"/>
  <rect fill="#aaffaa" stroke="#000000" stroke-width="2" x="440" y="244" width="31" height="32" id="svg_85"/>
  <rect fill="#aad4ff" stroke="#000000" stroke-width="2" x="471" y="244" width="31" height="32" id="svg_86"/>
  <rect fill="#ffffaa" stroke="#000000" stroke-width="2" x="502" y="244" width="31" height="32" id="svg_87"/>
  <rect fill="#aad4ff" stroke="#000000" stroke-width="2" x="533" y="244" width="31" height="32" id="svg_88"/>
  <rect fill="#aaffaa" stroke="#000000" stroke-width="2" x="564" y="244" width="31" height="32" id="svg_89"/>
  <rect fill="#aaffaa" stroke="#000000" stroke-width="2" x="39" y="327" width="31" height="32" id="svg_90"/>
  <rect fill="#aad4ff" stroke="#000000" stroke-width="2" x="70" y="327" width="31" height="32" id="svg_91"/>
  <rect fill="#ffffaa" stroke="#000000" stroke-width="2" x="101" y="327" width="31" height="32" id="svg_92"/>
  <rect fill="#aad4ff" stroke="#000000" stroke-width="2" x="132" y="327" width="31" height="32" id="svg_93"/>
  <rect fill="#aaffaa" stroke="#000000" stroke-width="2" x="163" y="327" width="31" height="32" id="svg_94"/>
  <rect fill="#aaffaa" stroke="#000000" stroke-width="2" x="242" y="327" width="31" height="32" id="svg_95"/>
  <rect fill="#aad4ff" stroke="#000000" stroke-width="2" x="273" y="327" width="31" height="32" id="svg_96"/>
  <rect fill="#ffffaa" stroke="#000000" stroke-width="2" x="304" y="327" width="31" height="32" id="svg_97"/>
  <rect fill="#aad4ff" stroke="#000000" stroke-width="2" x="335" y="327" width="31" height="32" id="svg_98"/>
  <rect fill="#aaffaa" stroke="#000000" stroke-width="2" x="366" y="327" width="31" height="32" id="svg_99"/>
  <rect fill="#aaffaa" stroke="#000000" stroke-width="2" x="439" y="327" width="31" height="32" id="svg_100"/>
  <rect fill="#aad4ff" stroke="#000000" stroke-width="2" x="470" y="327" width="31" height="32" id="svg_101"/>
  <rect fill="#ffffaa" stroke="#000000" stroke-width="2" x="501" y="327" width="31" height="32" id="svg_102"/>
  <rect fill="#aad4ff" stroke="#000000" stroke-width="2" x="532" y="327" width="31" height="32" id="svg_103"/>
  <rect fill="#aaffaa" stroke="#000000" stroke-width="2" x="563" y="327" width="31" height="32" id="svg_104"/>
  <rect fill="#ffaad4" stroke="#000000" stroke-width="2" x="361" y="433" width="31" height="32" id="svg_105"/>
  <rect fill="#aaffaa" stroke="#000000" stroke-width="2" x="392" y="433" width="31" height="32" id="svg_106"/>
  <rect fill="#ffffaa" stroke="#000000" stroke-width="2" x="423" y="433" width="31" height="32" id="svg_107"/>
  <rect fill="#ffffaa" stroke="#000000" stroke-width="2" x="454" y="433" width="31" height="32" id="svg_108"/>
  <rect fill="#aaffaa" stroke="#000000" stroke-width="2" x="485" y="433" width="31" height="32" id="svg_109"/>
  <rect fill="#ffaad4" stroke="#000000" stroke-width="2" x="516" y="433" width="31" height="32" id="svg_110"/>
  <rect fill="#ffaad4" stroke="#000000" stroke-width="2" x="92" y="517" width="31" height="32" id="svg_111"/>
  <rect fill="#aaffaa" stroke="#000000" stroke-width="2" x="123" y="517" width="31" height="32" id="svg_112"/>
  <rect fill="#ffffaa" stroke="#000000" stroke-width="2" x="154" y="517" width="31" height="32" id="svg_113"/>
  <rect fill="#ffffaa" stroke="#000000" stroke-width="2" x="185" y="517" width="31" height="32" id="svg_114"/>
  <rect fill="#aaffaa" stroke="#000000" stroke-width="2" x="216" y="517" width="31" height="32" id="svg_115"/>
  <rect fill="#ffaad4" stroke="#000000" stroke-width="2" x="247" y="517" width="31" height="32" id="svg_116"/>
  <rect fill="#ffaad4" stroke="#000000" stroke-width="2" x="362" y="516" width="31" height="32" id="svg_117"/>
  <rect fill="#aaffaa" stroke="#000000" stroke-width="2" x="393" y="516" width="31" height="32" id="svg_118"/>
  <rect fill="#ffffaa" stroke="#000000" stroke-width="2" x="424" y="516" width="31" height="32" id="svg_119"/>
  <rect fill="#ffffaa" stroke="#000000" stroke-width="2" x="455" y="516" width="31" height="32" id="svg_120"/>
  <rect fill="#aaffaa" stroke="#000000" stroke-width="2" x="486" y="516" width="31" height="32" id="svg_121"/>
  <rect fill="#ffaad4" stroke="#000000" stroke-width="2" x="517" y="516" width="31" height="32" id="svg_122"/>
  <text xml:space="preserve" text-anchor="middle" font-family="serif" font-size="24" id="svg_126" y="31" x="310" stroke-width="0" stroke="#000000" fill="#000000">E'&#22320;&#22359;</text>
  <rect id="svg_127" fill="#aaffaa" stroke="#000000" stroke-width="2" x="101" y="50" width="16" height="16.516129"/>
  <text id="svg_128" xml:space="preserve" text-anchor="middle" font-family="serif" font-size="24" y="67" x="210" stroke-width="0" stroke="#000000" fill="#000000">&#21320;A(2&#23460;1&#21381;1&#21355;)</text>
  <rect id="svg_129" fill="#ffffaa" stroke="#000000" stroke-width="2" x="101" y="88" width="16" height="16.516129"/>
  <rect id="svg_131" fill="#aad4ff" stroke="#000000" stroke-width="2" x="357" y="52" width="16" height="16.516129"/>
  <text id="svg_132" xml:space="preserve" text-anchor="middle" font-family="serif" font-size="24" y="69" x="466" stroke-width="0" stroke="#000000" fill="#000000">&#36784;A(2&#23460;2&#21381;1&#21355;)</text>
  <rect id="svg_133" fill="#ffffaa" stroke="#000000" stroke-width="2" x="357" y="90" width="16" height="16.516129"/>
  <text id="svg_134" xml:space="preserve" text-anchor="middle" font-family="serif" font-size="24" y="107" x="466" stroke-width="0" stroke="#000000" fill="#000000">&#23376;A(4&#23460;3&#21381;2&#21355;)</text>
  <text id="svg_130" xml:space="preserve" text-anchor="middle" font-family="serif" font-size="24" y="105" x="210" stroke-width="0" stroke="#000000" fill="#000000">&#36784;B(3&#23460;2&#21381;2&#21355;)</text>
 </g>
</svg>